<svg width="17" height="20" viewBox="0 0 17 20" fill="none" xmlns="http://www.w3.org/2000/svg">
<path d="M0.655617 20C0.465583 20 0.304054 19.9429 0.17103 19.8286C0.0570101 19.7143 0 19.5619 0 19.3714V0.657143C0 0.447619 0.0570101 0.285715 0.17103 0.17143C0.304054 0.0571433 0.465583 0 0.655617 0H1.36824C1.55828 0 1.7008 0.047619 1.79582 0.142857C1.89084 0.238095 1.94785 0.314286 1.96685 0.371429L8.4375 13L14.9367 0.371429C14.9747 0.314286 15.0317 0.238095 15.1077 0.142857C15.2027 0.047619 15.3452 0 15.5353 0H16.2194C16.4284 0 16.5899 0.0571433 16.704 0.17143C16.818 0.285715 16.875 0.447619 16.875 0.657143V19.3714C16.875 19.5619 16.818 19.7143 16.704 19.8286C16.5899 19.9429 16.4284 20 16.2194 20H15.7063C15.5163 20 15.3642 19.9429 15.2502 19.8286C15.1362 19.7143 15.0792 19.5619 15.0792 19.3714V3.88572L9.63471 14.6286C9.5587 14.819 9.44468 14.9619 9.29265 15.0571C9.15963 15.1524 8.9791 15.2 8.75106 15.2H8.12394C7.8959 15.2 7.71537 15.1524 7.58235 15.0571C7.44932 14.9619 7.3353 14.819 7.24029 14.6286L1.79582 3.88572V19.3714C1.79582 19.5619 1.73881 19.7143 1.62479 19.8286C1.51077 19.9429 1.35874 20 1.16871 20H0.655617Z" fill="white"/>
</svg>
