<svg width="17" height="20" viewBox="0 0 17 20" fill="none" xmlns="http://www.w3.org/2000/svg">
<path d="M8.57889 20C6.80947 20 5.29127 19.7183 4.02428 19.1549C2.77913 18.5916 1.81796 17.7277 1.14077 16.5634C0.463586 15.3991 0.125 13.9061 0.125 12.0845V0.647887C0.125 0.441315 0.19053 0.281691 0.321598 0.169015C0.452666 0.0563384 0.627427 0 0.845874 0H1.43568C1.67597 0 1.86165 0.0563384 1.99271 0.169015C2.12378 0.281691 2.18931 0.441315 2.18931 0.647887V12.169C2.18931 14.2723 2.75728 15.8216 3.89321 16.8169C5.05097 17.8122 6.61287 18.3099 8.57889 18.3099C10.5231 18.3099 12.0631 17.8122 13.199 16.8169C14.3568 15.8216 14.9357 14.2723 14.9357 12.169V0.647887C14.9357 0.441315 15.0012 0.281691 15.1323 0.169015C15.2852 0.0563384 15.4709 0 15.6893 0H16.2791C16.4976 0 16.6723 0.0563384 16.8034 0.169015C16.9345 0.281691 17 0.441315 17 0.647887V12.0845C17 13.9061 16.6614 15.3991 15.9842 16.5634C15.3289 17.7277 14.3786 18.5916 13.1335 19.1549C11.8883 19.7183 10.3701 20 8.57889 20Z" fill="white"/>
</svg>
