<svg width="18" height="20" viewBox="0 0 18 20" fill="none" xmlns="http://www.w3.org/2000/svg">
<path d="M1.49849 20C1.27167 20 1.09022 19.9429 0.954135 19.8286C0.818046 19.7143 0.75 19.5619 0.75 19.3714V0.657143C0.75 0.447619 0.818046 0.285715 0.954135 0.17143C1.09022 0.0571433 1.27167 0 1.49849 0H2.21296C2.43977 0 2.60988 0.047619 2.72328 0.142857C2.83669 0.238095 2.90474 0.304762 2.92742 0.342858L15.4816 16.4571V0.657143C15.4816 0.447619 15.5496 0.285715 15.6857 0.17143C15.8218 0.0571433 16.0033 0 16.2301 0H16.8425C17.092 0 17.2848 0.0571433 17.4209 0.17143C17.557 0.285715 17.625 0.447619 17.625 0.657143V19.3429C17.625 19.5333 17.557 19.6952 17.4209 19.8286C17.2848 19.9429 17.1033 20 16.8765 20H16.128C15.9012 20 15.7311 19.9524 15.6177 19.8571C15.527 19.7619 15.4589 19.6952 15.4136 19.6571L2.8934 3.6V19.3714C2.8934 19.5619 2.82535 19.7143 2.68926 19.8286C2.55318 19.9429 2.36038 20 2.11089 20H1.49849Z" fill="white"/>
</svg>
