<svg width="47" height="21" viewBox="0 0 47 21" fill="none" xmlns="http://www.w3.org/2000/svg">
<path d="M10 18C8.96778 18 7.99556 17.8028 7.08333 17.4083C6.17111 17.0139 5.37667 16.4778 4.7 15.8C4.02222 15.1239 3.48611 14.3294 3.09167 13.4167C2.69722 12.5044 2.5 11.5322 2.5 10.5C2.5 9.465 2.69722 8.49194 3.09167 7.58083C3.48667 6.66972 4.02278 5.87583 4.7 5.19917C5.37611 4.5225 6.17056 3.98694 7.08333 3.5925C7.99556 3.1975 8.96778 3 10 3C11.035 3 12.0081 3.19722 12.9192 3.59167C13.8303 3.98667 14.6242 4.52278 15.3008 5.2C15.9775 5.87667 16.5131 6.67028 16.9075 7.58083C17.3025 8.49194 17.5 9.465 17.5 10.5C17.5 11.5322 17.3028 12.5044 16.9083 13.4167C16.5139 14.3289 15.9778 15.1233 15.3 15.8C14.6233 16.4772 13.8297 17.0133 12.9192 17.4083C12.0081 17.8028 11.035 18 10 18ZM10 17.1733C10.4889 16.545 10.8922 15.9281 11.21 15.3225C11.5272 14.7169 11.7853 14.0392 11.9842 13.2892H8.01583C8.23583 14.0814 8.49917 14.7803 8.80583 15.3858C9.1125 15.9914 9.51056 16.5872 10 17.1733ZM8.93917 17.0483C8.55028 16.59 8.19528 16.0233 7.87417 15.3483C7.55306 14.6739 7.31417 13.9872 7.1575 13.2883H3.96083C4.43861 14.325 5.11556 15.175 5.99167 15.8383C6.86833 16.5017 7.85056 16.905 8.93833 17.0483H8.93917ZM11.0608 17.0483C12.1486 16.905 13.1308 16.5017 14.0075 15.8383C14.8842 15.175 15.5611 14.325 16.0383 13.2883H12.8433C12.6322 13.9978 12.3664 14.69 12.0458 15.365C11.7247 16.0394 11.3964 16.6006 11.0608 17.0483ZM3.62167 12.455H6.98417C6.92083 12.1133 6.87639 11.7803 6.85083 11.4558C6.82417 11.1314 6.81083 10.8128 6.81083 10.5C6.81083 10.1872 6.82389 9.86861 6.85 9.54417C6.87611 9.21972 6.92056 8.88639 6.98333 8.54417H3.6225C3.53194 8.83306 3.46111 9.14778 3.41 9.48833C3.35889 9.82889 3.33333 10.1661 3.33333 10.5C3.33333 10.8344 3.35861 11.1717 3.40917 11.5117C3.46028 11.8522 3.53111 12.1667 3.62167 12.455ZM7.8175 12.455H12.1825C12.2458 12.1133 12.2903 11.7856 12.3158 11.4717C12.3425 11.1583 12.3558 10.8344 12.3558 10.5C12.3558 10.1656 12.3428 9.84167 12.3167 9.52833C12.2906 9.21444 12.2461 8.88667 12.1833 8.545H7.81667C7.75389 8.88667 7.70944 9.21444 7.68333 9.52833C7.65722 9.84167 7.64417 10.1656 7.64417 10.5C7.64417 10.8344 7.65722 11.1583 7.68333 11.4717C7.70944 11.7856 7.75472 12.1133 7.8175 12.455ZM13.0158 12.455H16.3783C16.4689 12.1661 16.5397 11.8517 16.5908 11.5117C16.6419 11.1717 16.6672 10.8344 16.6667 10.5C16.6667 10.1656 16.6414 9.82833 16.5908 9.48833C16.5397 9.14778 16.4689 8.83333 16.3783 8.545H13.0158C13.0792 8.88667 13.1236 9.21972 13.1492 9.54417C13.1758 9.86861 13.1892 10.1872 13.1892 10.5C13.1892 10.8128 13.1761 11.1314 13.15 11.4558C13.1239 11.7803 13.0794 12.1136 13.0167 12.4558L13.0158 12.455ZM12.8433 7.71167H16.0383C15.55 6.65389 14.8811 5.80389 14.0317 5.16167C13.1817 4.51944 12.1914 4.11111 11.0608 3.93667C11.4497 4.44778 11.7994 5.03278 12.11 5.69167C12.42 6.35 12.6644 7.02333 12.8433 7.71167ZM8.01583 7.71167H11.9842C11.7642 6.92944 11.4928 6.22222 11.17 5.59C10.8478 4.95722 10.4578 4.36944 10 3.82667C9.54278 4.36944 9.15278 4.95722 8.83 5.59C8.50778 6.22222 8.23639 6.92944 8.01583 7.71167ZM3.96167 7.71167H7.15667C7.33556 7.02333 7.58 6.35 7.89 5.69167C8.20056 5.03278 8.55028 4.4475 8.93917 3.93583C7.79806 4.11083 6.80528 4.52194 5.96083 5.16917C5.11639 5.81694 4.44972 6.66417 3.96083 7.71083L3.96167 7.71167Z" fill="#CDBB42"/>
<path d="M25.76 16C25.6427 16 25.552 15.968 25.488 15.904C25.424 15.8293 25.392 15.7387 25.392 15.632L25.392 5.184C25.392 5.06667 25.424 4.976 25.488 4.912C25.552 4.83733 25.6427 4.8 25.76 4.8L29.664 4.8C30.8693 4.8 31.824 5.08267 32.528 5.648C33.232 6.21333 33.584 7.05067 33.584 8.16C33.584 8.98133 33.376 9.65333 32.96 10.176C32.5547 10.688 32 11.0453 31.296 11.248L33.76 15.504C33.792 15.568 33.808 15.6267 33.808 15.68C33.808 15.7653 33.7707 15.84 33.696 15.904C33.632 15.968 33.5573 16 33.472 16H32.704C32.5227 16 32.3893 15.952 32.304 15.856C32.2187 15.76 32.144 15.664 32.08 15.568L29.76 11.504L26.96 11.504L26.96 15.632C26.96 15.7387 26.9227 15.8293 26.848 15.904C26.784 15.968 26.6933 16 26.576 16H25.76ZM26.96 10.144L29.6 10.144C30.4 10.144 30.9973 9.97867 31.392 9.648C31.7867 9.30667 31.984 8.80533 31.984 8.144C31.984 7.49333 31.7867 6.99733 31.392 6.656C31.008 6.31467 30.4107 6.144 29.6 6.144H26.96V10.144ZM40.4204 16.16C39.5244 16.16 38.751 16 38.1004 15.68C37.4604 15.36 36.9644 14.8747 36.6124 14.224C36.271 13.5627 36.1004 12.7147 36.1004 11.68V5.184C36.1004 5.06667 36.1324 4.976 36.1964 4.912C36.2604 4.83733 36.351 4.8 36.4684 4.8H37.2844C37.4017 4.8 37.4924 4.83733 37.5564 4.912C37.631 4.976 37.6684 5.06667 37.6684 5.184V11.712C37.6684 12.7573 37.9137 13.5307 38.4044 14.032C38.895 14.5333 39.567 14.784 40.4204 14.784C41.263 14.784 41.9297 14.5333 42.4204 14.032C42.9217 13.5307 43.1724 12.7573 43.1724 11.712V5.184C43.1724 5.06667 43.2044 4.976 43.2684 4.912C43.343 4.83733 43.4337 4.8 43.5404 4.8H44.3724C44.479 4.8 44.5644 4.83733 44.6284 4.912C44.703 4.976 44.7404 5.06667 44.7404 5.184V11.68C44.7404 12.7147 44.5644 13.5627 44.2124 14.224C43.871 14.8747 43.3804 15.36 42.7404 15.68C42.1004 16 41.327 16.16 40.4204 16.16Z" fill="#CDBB42"/>
</svg>
